<svg width="20" height="20" viewBox="0 0 20 20" fill="none" xmlns="http://www.w3.org/2000/svg">
<path fill-rule="evenodd" clip-rule="evenodd" d="M17.2916 7.50012C17.2916 7.84178 17.575 8.12512 17.9166 8.12512C18.2583 8.12512 18.5416 7.84178 18.5416 7.50012V2.08345C18.5416 1.98966 18.5203 1.90027 18.4823 1.81993C18.4525 1.75516 18.4112 1.69465 18.3583 1.64173C18.3044 1.58786 18.2426 1.54599 18.1765 1.51614C18.0971 1.47916 18.009 1.45845 17.9166 1.45845H12.5C12.1583 1.45845 11.875 1.74178 11.875 2.08345C11.875 2.42512 12.1583 2.70845 12.5 2.70845H16.4082L13.0879 6.02881C11.8571 4.99688 10.2712 4.37512 8.54165 4.37512C4.63331 4.37512 1.45831 7.55012 1.45831 11.4585C1.45831 15.3668 4.63331 18.5418 8.54165 18.5418C12.45 18.5418 15.625 15.3668 15.625 11.4585C15.625 9.72886 15.0032 8.14288 13.9712 6.91213L17.2916 3.59169V7.50012ZM8.54165 5.62512C5.32498 5.62512 2.70831 8.24178 2.70831 11.4585C2.70831 14.6751 5.32498 17.2918 8.54165 17.2918C11.7583 17.2918 14.375 14.6751 14.375 11.4585C14.375 8.24178 11.7583 5.62512 8.54165 5.62512Z" fill="#6B47F5"/>
</svg>
