<svg width="32" height="32" viewBox="0 0 32 32" fill="none" xmlns="http://www.w3.org/2000/svg">
<path d="M16 28.8666C15.5867 28.8666 15.1867 28.8133 14.8534 28.6933C9.76002 26.9466 1.66669 20.7466 1.66669 11.5866C1.66669 6.91997 5.44002 3.1333 10.08 3.1333C12.3334 3.1333 14.44 4.0133 16 5.58663C17.56 4.0133 19.6667 3.1333 21.92 3.1333C26.56 3.1333 30.3334 6.9333 30.3334 11.5866C30.3334 20.76 22.24 26.9466 17.1467 28.6933C16.8134 28.8133 16.4134 28.8666 16 28.8666ZM10.08 5.1333C6.54669 5.1333 3.66669 8.02663 3.66669 11.5866C3.66669 20.6933 12.4267 25.76 15.5067 26.8133C15.7467 26.8933 16.2667 26.8933 16.5067 26.8133C19.5734 25.76 28.3467 20.7066 28.3467 11.5866C28.3467 8.02663 25.4667 5.1333 21.9334 5.1333C19.9067 5.1333 18.0267 6.07997 16.8134 7.71997C16.44 8.22663 15.5867 8.22663 15.2134 7.71997C13.9734 6.06663 12.1067 5.1333 10.08 5.1333Z" fill="#FF2E7D"/>
</svg>
