<svg width="16" height="17" viewBox="0 0 16 17" fill="none" xmlns="http://www.w3.org/2000/svg">
<path d="M11.6934 6.54013C10.5134 6.54013 9.55341 5.58013 9.55341 4.40013C9.55341 3.22013 10.5134 2.26013 11.6934 2.26013C12.8734 2.26013 13.8334 3.22013 13.8334 4.40013C13.8334 5.58013 12.8734 6.54013 11.6934 6.54013ZM11.6934 3.25347C11.0667 3.25347 10.5534 3.7668 10.5534 4.39347C10.5534 5.02013 11.0667 5.53347 11.6934 5.53347C12.3201 5.53347 12.8334 5.02013 12.8334 4.39347C12.8334 3.7668 12.3201 3.25347 11.6934 3.25347Z" fill="#1A1C1F"/>
<path d="M4.30669 6.54013C3.12669 6.54013 2.16669 5.58013 2.16669 4.40013C2.16669 3.22013 3.12669 2.26013 4.30669 2.26013C5.48669 2.26013 6.44669 3.22013 6.44669 4.40013C6.44669 5.58013 5.48669 6.54013 4.30669 6.54013ZM4.30669 3.25347C3.68002 3.25347 3.16669 3.7668 3.16669 4.39347C3.16669 5.02013 3.68002 5.53347 4.30669 5.53347C4.93336 5.53347 5.44669 5.02013 5.44669 4.39347C5.44669 3.7668 4.94002 3.25347 4.30669 3.25347Z" fill="#B3B9C3"/>
<path d="M11.6934 14.7468C10.5134 14.7468 9.55341 13.7868 9.55341 12.6068C9.55341 11.4268 10.5134 10.4668 11.6934 10.4668C12.8734 10.4668 13.8334 11.4268 13.8334 12.6068C13.8334 13.7868 12.8734 14.7468 11.6934 14.7468ZM11.6934 11.4601C11.0667 11.4601 10.5534 11.9735 10.5534 12.6001C10.5534 13.2268 11.0667 13.7401 11.6934 13.7401C12.3201 13.7401 12.8334 13.2268 12.8334 12.6001C12.8334 11.9735 12.3201 11.4601 11.6934 11.4601Z" fill="#B3B9C3"/>
<path d="M4.30669 14.7468C3.12669 14.7468 2.16669 13.7868 2.16669 12.6068C2.16669 11.4268 3.12669 10.4668 4.30669 10.4668C5.48669 10.4668 6.44669 11.4268 6.44669 12.6068C6.44669 13.7868 5.48669 14.7468 4.30669 14.7468ZM4.30669 11.4601C3.68002 11.4601 3.16669 11.9735 3.16669 12.6001C3.16669 13.2268 3.68002 13.7401 4.30669 13.7401C4.93336 13.7401 5.44669 13.2268 5.44669 12.6001C5.44669 11.9735 4.94002 11.4601 4.30669 11.4601Z" fill="#B3B9C3"/>
</svg>
