<svg width="18" height="18" viewBox="0 0 18 18" fill="none" xmlns="http://www.w3.org/2000/svg">
<path d="M11.1676 13.665H4.57514C4.18514 13.665 3.81763 13.6276 3.48763 13.5526C3.31513 13.5301 3.10514 13.47 2.88764 13.3875C1.89014 13.0125 0.712646 12.0901 0.712646 9.79506V5.93254C0.712646 3.48004 2.12264 2.07007 4.57514 2.07007H11.1676C13.2376 2.07007 14.5726 3.06005 14.9326 4.86005C15.0001 5.19005 15.0301 5.54254 15.0301 5.93254V9.79506C15.0301 12.2626 13.6276 13.665 11.1676 13.665ZM4.58263 3.21008C2.73763 3.21008 1.84513 4.10256 1.84513 5.94756V9.81007C1.84513 11.1526 2.31764 11.9776 3.28514 12.3451C3.43514 12.3976 3.57765 12.4351 3.71265 12.4576C3.99765 12.5175 4.27513 12.5475 4.58263 12.5475H11.1751C13.0201 12.5475 13.9126 11.6551 13.9126 9.81007V5.94756C13.9126 5.63256 13.8901 5.35505 13.8376 5.10005C13.5826 3.82505 12.7126 3.21008 11.1751 3.21008H4.58263Z" fill="#6B47F5"/>
<path d="M13.4176 15.915H6.82507C6.18757 15.915 5.61756 15.825 5.13006 15.6375C4.02756 15.225 3.30755 14.355 3.06005 13.11C3.02255 12.9225 3.08257 12.7275 3.21757 12.6C3.35257 12.465 3.54757 12.4125 3.73507 12.4575C3.98257 12.51 4.26007 12.54 4.57507 12.54H11.1676C13.0126 12.54 13.9051 11.6476 13.9051 9.80255V5.94004C13.9051 5.62504 13.8826 5.34753 13.8301 5.09253C13.7926 4.90503 13.8526 4.71754 13.9801 4.58254C14.1151 4.44754 14.3026 4.38753 14.4901 4.43253C16.2901 4.80003 17.2801 6.13504 17.2801 8.19004V12.0526C17.2801 14.5126 15.8776 15.915 13.4176 15.915ZM4.44007 13.665C4.68007 14.1 5.04007 14.4076 5.53507 14.5876C5.89507 14.7226 6.33005 14.79 6.83255 14.79H13.4251C15.2701 14.79 16.1626 13.8976 16.1626 12.0526V8.19004C16.1626 7.00504 15.7951 6.21754 15.0376 5.80504C15.0376 5.85004 15.0376 5.89504 15.0376 5.94004V9.80255C15.0376 12.2551 13.6276 13.665 11.1751 13.665H4.58255C4.53005 13.665 4.48507 13.665 4.44007 13.665Z" fill="#6B47F5"/>
<path d="M7.87491 10.4176C6.47241 10.4176 5.3324 9.27756 5.3324 7.87506C5.3324 6.47256 6.47241 5.33255 7.87491 5.33255C9.27741 5.33255 10.4174 6.47256 10.4174 7.87506C10.4174 9.27756 9.27741 10.4176 7.87491 10.4176ZM7.87491 6.45755C7.09491 6.45755 6.4574 7.09506 6.4574 7.87506C6.4574 8.65506 7.09491 9.29257 7.87491 9.29257C8.65491 9.29257 9.29242 8.65506 9.29242 7.87506C9.29242 7.09506 8.65491 6.45755 7.87491 6.45755Z" fill="#6B47F5"/>
<path d="M3.58521 10.0876C3.27771 10.0876 3.02271 9.83262 3.02271 9.52512V6.2251C3.02271 5.9176 3.27771 5.6626 3.58521 5.6626C3.8927 5.6626 4.14771 5.9176 4.14771 6.2251V9.52512C4.14771 9.83262 3.90021 10.0876 3.58521 10.0876Z" fill="#6B47F5"/>
<path d="M12.1575 10.0876C11.85 10.0876 11.595 9.83262 11.595 9.52512V6.2251C11.595 5.9176 11.85 5.6626 12.1575 5.6626C12.465 5.6626 12.72 5.9176 12.72 6.2251V9.52512C12.72 9.83262 12.4725 10.0876 12.1575 10.0876Z" fill="#6B47F5"/>
</svg>
