<svg width="14" height="14" viewBox="0 0 14 14" fill="none" xmlns="http://www.w3.org/2000/svg">
<path d="M5.34311 6.77846C5.32561 6.77846 5.31394 6.77846 5.29644 6.77846C5.26727 6.77263 5.22644 6.77263 5.19144 6.77846C3.49977 6.72596 2.22227 5.39596 2.22227 3.75679C2.22227 2.08846 3.58144 0.729294 5.24977 0.729294C6.91811 0.729294 8.27727 2.08846 8.27727 3.75679C8.27144 5.39596 6.98811 6.72596 5.36061 6.77846C5.35477 6.77846 5.34894 6.77846 5.34311 6.77846ZM5.24977 1.60429C4.06561 1.60429 3.09727 2.57263 3.09727 3.75679C3.09727 4.92346 4.00727 5.86263 5.16811 5.90346C5.20311 5.89763 5.27894 5.89763 5.35477 5.90346C6.49811 5.85096 7.39644 4.91179 7.40227 3.75679C7.40227 2.57263 6.43394 1.60429 5.24977 1.60429Z" fill="white"/>
<path d="M9.6481 6.85428C9.6306 6.85428 9.6131 6.85428 9.5956 6.84845C9.35644 6.87178 9.11144 6.70262 9.0881 6.46345C9.06477 6.22428 9.2106 6.00845 9.44977 5.97928C9.51977 5.97345 9.5956 5.97345 9.65977 5.97345C10.5114 5.92678 11.1764 5.22678 11.1764 4.36928C11.1764 3.48262 10.4589 2.76512 9.57227 2.76512C9.3331 2.77095 9.13477 2.57262 9.13477 2.33345C9.13477 2.09428 9.3331 1.89595 9.57227 1.89595C10.9373 1.89595 12.0514 3.01012 12.0514 4.37512C12.0514 5.71678 11.0014 6.80178 9.6656 6.85428C9.65977 6.85428 9.65394 6.85428 9.6481 6.85428Z" fill="white"/>
<path d="M5.34894 13.1543C4.20561 13.1543 3.05644 12.8626 2.18727 12.2793C1.37644 11.7426 0.933105 11.0076 0.933105 10.2084C0.933105 9.40928 1.37644 8.66845 2.18727 8.12595C3.93727 6.96512 6.77227 6.96512 8.5106 8.12595C9.31561 8.66262 9.76477 9.39762 9.76477 10.1968C9.76477 10.9959 9.32144 11.7368 8.5106 12.2793C7.63561 12.8626 6.49227 13.1543 5.34894 13.1543ZM2.67144 8.86095C2.11144 9.23428 1.80811 9.71262 1.80811 10.2143C1.80811 10.7101 2.11727 11.1884 2.67144 11.5559C4.12394 12.5301 6.57394 12.5301 8.02644 11.5559C8.58644 11.1826 8.88977 10.7043 8.88977 10.2026C8.88977 9.70678 8.58061 9.22845 8.02644 8.86095C6.57394 7.89262 4.12394 7.89262 2.67144 8.86095Z" fill="white"/>
<path d="M10.6981 12.1043C10.4939 12.1043 10.3131 11.9643 10.2723 11.7543C10.2256 11.5151 10.3773 11.2876 10.6106 11.2351C10.9781 11.1593 11.3164 11.0135 11.5789 10.8093C11.9114 10.5585 12.0923 10.2435 12.0923 9.91095C12.0923 9.57845 11.9114 9.26345 11.5848 9.01845C11.3281 8.82012 11.0073 8.68012 10.6281 8.59262C10.3948 8.54012 10.2431 8.30678 10.2956 8.06762C10.3481 7.83428 10.5814 7.68262 10.8206 7.73512C11.3223 7.84595 11.7598 8.04428 12.1156 8.31845C12.6581 8.72678 12.9673 9.30428 12.9673 9.91095C12.9673 10.5176 12.6523 11.0951 12.1098 11.5093C11.7481 11.7893 11.2931 11.9935 10.7914 12.0926C10.7564 12.1043 10.7273 12.1043 10.6981 12.1043Z" fill="white"/>
</svg>
