<svg width="35" height="35" viewBox="0 0 35 35" fill="none" xmlns="http://www.w3.org/2000/svg">
<path d="M20.987 7.92902C20.987 7.92902 10.0889 1.61039 4.33945 6.83615C4.16183 7.05845 4.13876 7.37618 4.29562 7.62176C4.35329 7.71487 5.78115 9.9332 9.19394 9.9332C10.8986 9.9332 12.255 9.11034 13.5652 8.31193C14.8327 7.54145 16.0253 6.81287 17.505 6.81287C18.7933 6.81287 19.881 7.32264 20.9882 7.92902" fill="#A8A9CF"/>
<path d="M4.33942 6.83609C7.58151 2.80911 12.3818 0.5 17.5039 0.5C22.6259 0.5 27.4204 2.80911 30.6625 6.83609C30.8563 7.07701 30.8609 7.42035 30.6741 7.66825C30.6118 7.74973 29.0893 9.72248 25.8103 9.72248C24.1772 9.72248 22.8301 8.9648 21.5337 8.23157C21.3503 8.12915 21.1681 8.02673 20.987 7.9278C20.987 7.9278 10.0889 1.60916 4.33942 6.83493" fill="#6B47F5"/>
<path d="M33.3718 11.4461C33.2703 11.1796 33.0084 11.0015 32.7201 11.0143C32.6117 11.0178 29.9936 11.1563 28.2866 14.1393C27.4343 15.6291 27.462 17.2259 27.4931 18.7703C27.5208 20.2636 27.5484 21.6695 26.8091 22.9626C26.1656 24.088 25.1841 24.7852 24.1103 25.4486C24.1195 25.4428 34.9818 19.0811 33.3706 11.4461" fill="#A8A9CF"/>
<path d="M33.3718 11.4461C35.2068 16.2936 34.7881 21.6427 32.2276 26.119C29.6695 30.5906 25.2879 33.6306 20.2108 34.4499C19.9075 34.4988 19.6099 34.3312 19.4899 34.0437C19.4519 33.9483 18.5188 31.6322 20.1589 28.7656C20.9755 27.3375 22.2984 26.5403 23.5763 25.7733C23.7562 25.6639 23.935 25.5557 24.1115 25.4474C24.1115 25.4474 34.9842 19.0822 33.3729 11.4449" fill="#6B47F5"/>
<path d="M15.0219 28.7005C14.1695 27.2107 12.7855 26.4368 11.4441 25.6919C10.1489 24.9691 8.92752 24.2906 8.18821 22.9987C7.54349 21.8732 7.43738 20.6675 7.40393 19.3977C7.40393 19.4012 7.43046 32.0815 14.79 34.4919C15.0703 34.5361 15.354 34.3965 15.4867 34.1381C15.5386 34.0415 16.7277 31.6846 15.0219 28.7017" fill="#A8A9CF"/>
<path d="M14.79 34.4919C9.71296 33.6714 5.33135 30.6314 2.76974 26.1552C0.211587 21.6836 -0.205932 16.3344 1.62791 11.4869C1.73748 11.1971 2.03043 11.0214 2.33607 11.0598C2.43757 11.0738 4.89076 11.4171 6.53084 14.2826C7.34742 15.7106 7.37164 17.2655 7.39009 18.7658C7.39355 18.9776 7.39701 19.1871 7.40278 19.3954C7.40278 19.3954 7.4293 32.0792 14.7889 34.4896" fill="#6B47F5"/>
</svg>
