<svg width="20" height="20" viewBox="0 0 20 20" fill="none" xmlns="http://www.w3.org/2000/svg">
<path d="M18.3334 7.70835H1.66669C1.32502 7.70835 1.04169 7.42502 1.04169 7.08335C1.04169 6.74169 1.32502 6.45835 1.66669 6.45835H18.3334C18.675 6.45835 18.9584 6.74169 18.9584 7.08335C18.9584 7.42502 18.675 7.70835 18.3334 7.70835Z" fill="#6B47F5"/>
<path d="M6.66669 14.375H5.00002C4.65835 14.375 4.37502 14.0917 4.37502 13.75C4.37502 13.4084 4.65835 13.125 5.00002 13.125H6.66669C7.00835 13.125 7.29169 13.4084 7.29169 13.75C7.29169 14.0917 7.00835 14.375 6.66669 14.375Z" fill="#6B47F5"/>
<path d="M12.0834 14.375H8.75002C8.40835 14.375 8.12502 14.0917 8.12502 13.75C8.12502 13.4084 8.40835 13.125 8.75002 13.125H12.0834C12.425 13.125 12.7084 13.4084 12.7084 13.75C12.7084 14.0917 12.425 14.375 12.0834 14.375Z" fill="#6B47F5"/>
<path d="M14.6334 17.7084H5.36669C2.05002 17.7084 1.04169 16.7084 1.04169 13.425V6.57502C1.04169 3.29169 2.05002 2.29169 5.36669 2.29169H14.625C17.9417 2.29169 18.95 3.29169 18.95 6.57502V13.4167C18.9584 16.7084 17.95 17.7084 14.6334 17.7084ZM5.36669 3.54169C2.75002 3.54169 2.29169 3.99169 2.29169 6.57502V13.4167C2.29169 16 2.75002 16.45 5.36669 16.45H14.625C17.2417 16.45 17.7 16 17.7 13.4167V6.57502C17.7 3.99169 17.2417 3.54169 14.625 3.54169H5.36669Z" fill="#6B47F5"/>
</svg>
