<svg width="20" height="20" viewBox="0 0 20 20" fill="none" xmlns="http://www.w3.org/2000/svg">
<path d="M14.1667 17.5334H5.83332C3.19166 17.5334 1.04166 15.3834 1.04166 12.7417V4.75835C1.04166 3.67502 1.54166 3.30002 1.84166 3.17502C2.14166 3.05002 2.75832 2.95835 3.52499 3.72502L5.68332 5.88335C5.76666 5.96669 5.89999 5.96669 5.97499 5.88335L8.96666 2.89169C9.51666 2.34169 10.4833 2.34169 11.025 2.89169L14.0167 5.88335C14.1 5.96669 14.2333 5.96669 14.3083 5.88335L16.4667 3.72502C17.2333 2.95835 17.85 3.05835 18.15 3.17502C18.45 3.30002 18.95 3.66669 18.95 4.75835V12.75C18.9583 15.6084 17.0333 17.5334 14.1667 17.5334ZM2.34166 4.36669C2.31666 4.43335 2.29166 4.55835 2.29166 4.75835V12.75C2.29166 14.7 3.88332 16.2917 5.83332 16.2917H14.1667C16.3167 16.2917 17.7083 14.9 17.7083 12.75V4.75835C17.7083 4.55835 17.6833 4.44169 17.6583 4.37502C17.5917 4.40835 17.4917 4.47502 17.35 4.61669L15.1917 6.77502C14.6417 7.32502 13.675 7.32502 13.1333 6.77502L10.1417 3.78335C10.0583 3.70002 9.92499 3.70002 9.84999 3.78335L6.86666 6.76669C6.31666 7.31669 5.34999 7.31669 4.80832 6.76669L2.64999 4.60835C2.50832 4.46669 2.39999 4.40002 2.34166 4.36669Z" fill="#6B47F5"/>
</svg>
