<svg width="20" height="20" viewBox="0 0 20 20" fill="none" xmlns="http://www.w3.org/2000/svg">
<path d="M9.99999 18.9584C5.05832 18.9584 1.04166 14.9417 1.04166 10C1.04166 5.05835 5.05832 1.04169 9.99999 1.04169C14.9417 1.04169 18.9583 5.05835 18.9583 10C18.9583 14.9417 14.9417 18.9584 9.99999 18.9584ZM9.99999 2.29169C5.74999 2.29169 2.29166 5.75002 2.29166 10C2.29166 14.25 5.74999 17.7084 9.99999 17.7084C14.25 17.7084 17.7083 14.25 17.7083 10C17.7083 5.75002 14.25 2.29169 9.99999 2.29169Z" fill="#6B47F5"/>
<path d="M7.49999 18.125H6.66666C6.32499 18.125 6.04166 17.8417 6.04166 17.5C6.04166 17.1584 6.30832 16.8834 6.64999 16.875C5.34166 12.4084 5.34166 7.59169 6.64999 3.12502C6.30832 3.11669 6.04166 2.84169 6.04166 2.50002C6.04166 2.15835 6.32499 1.87502 6.66666 1.87502H7.49999C7.69999 1.87502 7.89166 1.97502 8.00832 2.13335C8.12499 2.30002 8.15832 2.50835 8.09166 2.70002C6.52499 7.40835 6.52499 12.5917 8.09166 17.3084C8.15832 17.5 8.12499 17.7084 8.00832 17.875C7.89166 18.025 7.69999 18.125 7.49999 18.125Z" fill="#6B47F5"/>
<path d="M12.5 18.125C12.4333 18.125 12.3667 18.1167 12.3 18.0917C11.975 17.9834 11.7917 17.625 11.9083 17.3C13.475 12.5917 13.475 7.40835 11.9083 2.69169C11.8 2.36669 11.975 2.00835 12.3 1.90002C12.6333 1.79169 12.9833 1.96669 13.0917 2.29169C14.75 7.25835 14.75 12.725 13.0917 17.6834C13.0083 17.9584 12.7583 18.125 12.5 18.125Z" fill="#6B47F5"/>
<path d="M9.99999 14.3334C7.67499 14.3334 5.35832 14.0084 3.12499 13.35C3.11666 13.6834 2.84166 13.9584 2.49999 13.9584C2.15832 13.9584 1.87499 13.675 1.87499 13.3334V12.5C1.87499 12.3 1.97499 12.1084 2.13332 11.9917C2.29999 11.875 2.50832 11.8417 2.69999 11.9084C7.40832 13.475 12.6 13.475 17.3083 11.9084C17.5 11.8417 17.7083 11.875 17.875 11.9917C18.0417 12.1084 18.1333 12.3 18.1333 12.5V13.3334C18.1333 13.675 17.85 13.9584 17.5083 13.9584C17.1667 13.9584 16.8917 13.6917 16.8833 13.35C14.6417 14.0084 12.325 14.3334 9.99999 14.3334Z" fill="#6B47F5"/>
<path d="M17.5 8.12502C17.4333 8.12502 17.3667 8.11669 17.3 8.09169C12.5917 6.52502 7.39999 6.52502 2.69166 8.09169C2.35832 8.20002 2.00832 8.02502 1.89999 7.70002C1.79999 7.36669 1.97499 7.01669 2.29999 6.90835C7.26666 5.25002 12.7333 5.25002 17.6917 6.90835C18.0167 7.01669 18.2 7.37502 18.0833 7.70002C18.0083 7.95835 17.7583 8.12502 17.5 8.12502Z" fill="#6B47F5"/>
</svg>
