<svg width="16" height="16" viewBox="0 0 16 16" fill="none" xmlns="http://www.w3.org/2000/svg">
<path d="M5.33334 14.8799C5.14668 14.8799 4.95333 14.8333 4.78 14.74C4.4 14.54 4.16668 14.1399 4.16668 13.7133V12.7667C2.15334 12.56 0.833344 11.0799 0.833344 8.95994V4.95998C0.833344 2.66665 2.37334 1.12665 4.66668 1.12665H11.3333C13.6267 1.12665 15.1667 2.66665 15.1667 4.95998V8.95994C15.1667 11.2533 13.6267 12.7933 11.3333 12.7933H8.82L5.97999 14.6867C5.78666 14.8133 5.56001 14.8799 5.33334 14.8799ZM4.66668 2.11997C2.94668 2.11997 1.83334 3.23331 1.83334 4.95331V8.95335C1.83334 10.6733 2.94668 11.7867 4.66668 11.7867C4.94001 11.7867 5.16668 12.0133 5.16668 12.2867V13.7067C5.16668 13.7934 5.22001 13.8333 5.25335 13.8533C5.28668 13.8733 5.35335 13.8933 5.42669 13.8467L8.39336 11.8734C8.47336 11.82 8.57335 11.7867 8.67335 11.7867H11.34C13.06 11.7867 14.1734 10.6733 14.1734 8.95335V4.95331C14.1734 3.23331 13.06 2.11997 11.34 2.11997H4.66668Z" fill="#FF4136"/>
<path d="M7.99989 8.07334C7.72655 8.07334 7.49989 7.84668 7.49989 7.57334V7.43337C7.49989 6.66004 8.06654 6.28003 8.27988 6.13336C8.52654 5.9667 8.60654 5.85337 8.60654 5.68003C8.60654 5.3467 8.33322 5.07334 7.99989 5.07334C7.66655 5.07334 7.39324 5.3467 7.39324 5.68003C7.39324 5.95337 7.16657 6.18003 6.89324 6.18003C6.61991 6.18003 6.39324 5.95337 6.39324 5.68003C6.39324 4.79337 7.11322 4.07334 7.99989 4.07334C8.88655 4.07334 9.60654 4.79337 9.60654 5.68003C9.60654 6.44003 9.04656 6.82002 8.8399 6.96002C8.5799 7.13336 8.49989 7.2467 8.49989 7.43337V7.57334C8.49989 7.85334 8.27322 8.07334 7.99989 8.07334Z" fill="#FF4136"/>
<path d="M8.00001 9.73334C7.72001 9.73334 7.50001 9.50667 7.50001 9.23334C7.50001 8.96 7.72668 8.73334 8.00001 8.73334C8.27334 8.73334 8.50001 8.96 8.50001 9.23334C8.50001 9.50667 8.28001 9.73334 8.00001 9.73334Z" fill="#FF4136"/>
</svg>
