<svg width="20" height="20" viewBox="0 0 20 20" fill="none" xmlns="http://www.w3.org/2000/svg">
<path d="M12.4085 15.1833H5.0835C4.65017 15.1833 4.24182 15.1417 3.87516 15.0583C3.68349 15.0333 3.45017 14.9666 3.2085 14.875C2.10017 14.4583 0.79184 13.4333 0.79184 10.8833V6.59162C0.79184 3.86662 2.3585 2.29999 5.0835 2.29999H12.4085C14.7085 2.29999 16.1918 3.39996 16.5918 5.39996C16.6668 5.76663 16.7002 6.15829 16.7002 6.59162V10.8833C16.7002 13.625 15.1418 15.1833 12.4085 15.1833ZM5.09182 3.56667C3.04182 3.56667 2.05016 4.55831 2.05016 6.60831V10.9C2.05016 12.3917 2.57517 13.3083 3.65017 13.7167C3.81683 13.775 3.97517 13.8166 4.12517 13.8416C4.44184 13.9083 4.75015 13.9416 5.09182 13.9416H12.4168C14.4668 13.9416 15.4585 12.95 15.4585 10.9V6.60831C15.4585 6.25831 15.4335 5.94997 15.3752 5.66664C15.0918 4.24997 14.1252 3.56667 12.4168 3.56667H5.09182Z" fill="#6B47F5"/>
<path d="M14.9084 17.6833H7.58342C6.87509 17.6833 6.24174 17.5833 5.70008 17.3749C4.47508 16.9166 3.67507 15.9499 3.40007 14.5666C3.3584 14.3583 3.42509 14.1416 3.57509 14C3.72509 13.85 3.94176 13.7916 4.15009 13.8416C4.42509 13.9 4.73342 13.9333 5.08342 13.9333H12.4084C14.4584 13.9333 15.4501 12.9416 15.4501 10.8916V6.59995C15.4501 6.24995 15.4251 5.94161 15.3667 5.65828C15.3251 5.44995 15.3918 5.24162 15.5334 5.09162C15.6834 4.94162 15.8918 4.87494 16.1001 4.92494C18.1001 5.33328 19.2001 6.81662 19.2001 9.09995V13.3916C19.2001 16.125 17.6418 17.6833 14.9084 17.6833ZM4.93343 15.1833C5.20009 15.6666 5.60008 16.0083 6.15008 16.2083C6.55009 16.3583 7.0334 16.4333 7.59174 16.4333H14.9167C16.9667 16.4333 17.9584 15.4416 17.9584 13.3916V9.09995C17.9584 7.78328 17.5501 6.90829 16.7084 6.44996C16.7084 6.49996 16.7084 6.54995 16.7084 6.59995V10.8916C16.7084 13.6166 15.1417 15.1833 12.4167 15.1833H5.09174C5.0334 15.1833 4.98343 15.1833 4.93343 15.1833Z" fill="#6B47F5"/>
<path d="M8.74991 11.575C7.19158 11.575 5.9249 10.3083 5.9249 8.74998C5.9249 7.19165 7.19158 5.92497 8.74991 5.92497C10.3082 5.92497 11.5749 7.19165 11.5749 8.74998C11.5749 10.3083 10.3082 11.575 8.74991 11.575ZM8.74991 7.17497C7.88324 7.17497 7.1749 7.88331 7.1749 8.74998C7.1749 9.61665 7.88324 10.325 8.74991 10.325C9.61658 10.325 10.3249 9.61665 10.3249 8.74998C10.3249 7.88331 9.61658 7.17497 8.74991 7.17497Z" fill="#6B47F5"/>
<path d="M3.98357 11.2084C3.6419 11.2084 3.35857 10.925 3.35857 10.5834V6.91669C3.35857 6.57502 3.6419 6.29169 3.98357 6.29169C4.32524 6.29169 4.60857 6.57502 4.60857 6.91669V10.5834C4.60857 10.925 4.33357 11.2084 3.98357 11.2084Z" fill="#6B47F5"/>
<path d="M13.5083 11.2084C13.1666 11.2084 12.8833 10.925 12.8833 10.5834V6.91669C12.8833 6.57502 13.1666 6.29169 13.5083 6.29169C13.85 6.29169 14.1333 6.57502 14.1333 6.91669V10.5834C14.1333 10.925 13.8583 11.2084 13.5083 11.2084Z" fill="#6B47F5"/>
</svg>
