<svg width="17" height="18" viewBox="0 0 17 18" fill="none" xmlns="http://www.w3.org/2000/svg">
<path d="M8 9.62496C5.35833 9.62496 3.20833 7.47496 3.20833 4.83329C3.20833 2.19163 5.35833 0.041626 8 0.041626C10.6417 0.041626 12.7917 2.19163 12.7917 4.83329C12.7917 7.47496 10.6417 9.62496 8 9.62496ZM8 1.29163C6.05 1.29163 4.45833 2.88329 4.45833 4.83329C4.45833 6.78329 6.05 8.37496 8 8.37496C9.95 8.37496 11.5417 6.78329 11.5417 4.83329C11.5417 2.88329 9.95 1.29163 8 1.29163Z" fill="#6B47F5"/>
<path d="M0.841797 17.9583C0.50013 17.9583 0.216797 17.675 0.216797 17.3333C0.216797 13.775 3.70846 10.875 8.00013 10.875C8.84179 10.875 9.66679 10.9833 10.4668 11.2083C10.8001 11.3 10.9918 11.6416 10.9001 11.975C10.8085 12.3083 10.4668 12.5 10.1335 12.4083C9.45013 12.2166 8.73346 12.125 8.00013 12.125C4.40013 12.125 1.4668 14.4583 1.4668 17.3333C1.4668 17.675 1.18346 17.9583 0.841797 17.9583Z" fill="#6B47F5"/>
<path d="M13 17.9583C12.0167 17.9583 11.0833 17.5916 10.3583 16.9333C10.0667 16.6833 9.80833 16.375 9.60833 16.0333C9.24166 15.4333 9.04167 14.725 9.04167 14C9.04167 12.9583 9.44166 11.9833 10.1583 11.2416C10.9083 10.4666 11.9167 10.0416 13 10.0416C14.1333 10.0416 15.2083 10.525 15.9417 11.3583C16.5917 12.0833 16.9583 13.0166 16.9583 14C16.9583 14.3166 16.9167 14.6333 16.8333 14.9333C16.75 15.3083 16.5917 15.7 16.375 16.0416C15.6833 17.225 14.3833 17.9583 13 17.9583ZM13 11.2916C12.2583 11.2916 11.575 11.5833 11.0583 12.1083C10.5667 12.6166 10.2917 13.2833 10.2917 14C10.2917 14.4916 10.425 14.9749 10.6833 15.3916C10.8167 15.6249 10.9917 15.8333 11.1917 16.0083C11.6917 16.4666 12.3333 16.7166 13 16.7166C13.9417 16.7166 14.8333 16.2166 15.3167 15.4083C15.4583 15.175 15.5667 14.9083 15.625 14.65C15.6833 14.4333 15.7083 14.225 15.7083 14.0083C15.7083 13.3416 15.4583 12.7 15.0083 12.2C14.5083 11.6166 13.775 11.2916 13 11.2916Z" fill="#6B47F5"/>
<path d="M14.2498 14.6083H11.7581C11.4165 14.6083 11.1331 14.3249 11.1331 13.9833C11.1331 13.6416 11.4165 13.3583 11.7581 13.3583H14.2498C14.5915 13.3583 14.8748 13.6416 14.8748 13.9833C14.8748 14.3249 14.5915 14.6083 14.2498 14.6083Z" fill="#6B47F5"/>
<path d="M13 15.8833C12.6583 15.8833 12.375 15.6 12.375 15.2583V12.7666C12.375 12.425 12.6583 12.1416 13 12.1416C13.3417 12.1416 13.625 12.425 13.625 12.7666V15.2583C13.625 15.6083 13.3417 15.8833 13 15.8833Z" fill="#6B47F5"/>
</svg>
